<?xml version="1.0" encoding="UTF-8" standalone="no"?><!DOCTYPE svg PUBLIC "-//W3C//DTD SVG 1.1//EN" "http://www.w3.org/Graphics/SVG/1.1/DTD/svg11.dtd"><svg width="100%" height="100%" viewBox="0 0 16 16" version="1.1" xmlns="http://www.w3.org/2000/svg" xmlns:xlink="http://www.w3.org/1999/xlink" xml:space="preserve" xmlns:serif="http://www.serif.com/" style="fill-rule:evenodd;clip-rule:evenodd;stroke-linejoin:round;stroke-miterlimit:1.41421;"><path d="M1.646,4.646c0.094,-0.094 0.221,-0.147 0.354,-0.147c0.133,0 0.26,0.053 0.354,0.147l5.646,5.647l5.646,-5.647c0.094,-0.094 0.221,-0.147 0.354,-0.147c0.275,0 0.501,0.226 0.501,0.501c0,0.133 -0.053,0.26 -0.147,0.354l-6,6c-0.094,0.094 -0.221,0.147 -0.354,0.147c-0.133,0 -0.26,-0.053 -0.354,-0.147l-6,-6c-0.094,-0.094 -0.147,-0.221 -0.147,-0.354c0,-0.133 0.053,-0.26 0.147,-0.354Z" style="fill:#fff;"/></svg>