<?xml version="1.0" encoding="UTF-8" standalone="no"?><!DOCTYPE svg PUBLIC "-//W3C//DTD SVG 1.1//EN" "http://www.w3.org/Graphics/SVG/1.1/DTD/svg11.dtd"><svg width="100%" height="100%" viewBox="0 0 448 512" version="1.1" xmlns="http://www.w3.org/2000/svg" xmlns:xlink="http://www.w3.org/1999/xlink" xml:space="preserve" xmlns:serif="http://www.serif.com/" style="fill-rule:evenodd;clip-rule:evenodd;stroke-linejoin:round;stroke-miterlimit:1.41421;"><path d="M0,96c0,-17.67 14.33,-32 32,-32l384,0c17.7,0 32,14.33 32,32c0,17.7 -14.3,32 -32,32l-384,0c-17.67,0 -32,-14.3 -32,-32Zm0,160c0,-17.7 14.33,-32 32,-32l384,0c17.7,0 32,14.3 32,32c0,17.7 -14.3,32 -32,32l-384,0c-17.67,0 -32,-14.3 -32,-32Zm416,192l-384,0c-17.67,0 -32,-14.3 -32,-32c0,-17.7 14.33,-32 32,-32l384,0c17.7,0 32,14.3 32,32c0,17.7 -14.3,32 -32,32Z" style="fill:#d11414;fill-rule:nonzero;"/></svg>